<svg width="256" height="256" viewBox="0 0 256 256" fill="none" xmlns="http://www.w3.org/2000/svg">
<rect width="256" height="256" rx="56" fill="#F5F378"/>
<path d="M47.7325 63.1001C47.7325 55.0643 54.2468 48.55 62.2825 48.55H198.567C206.603 48.55 213.117 55.0643 213.117 63.1V156.705C213.117 164.741 206.603 171.255 198.567 171.255H62.2825C54.2468 171.255 47.7325 164.741 47.7325 156.705V63.1001Z" fill="white"/>
<path fill-rule="evenodd" clip-rule="evenodd" d="M198.567 55.825H62.2825C58.2646 55.825 55.0075 59.0822 55.0075 63.1001V156.705C55.0075 160.723 58.2646 163.98 62.2825 163.98H198.567C202.585 163.98 205.842 160.723 205.842 156.705V63.1C205.842 59.0822 202.585 55.825 198.567 55.825ZM62.2825 48.55C54.2468 48.55 47.7325 55.0643 47.7325 63.1001V156.705C47.7325 164.741 54.2468 171.255 62.2825 171.255H198.567C206.603 171.255 213.117 164.741 213.117 156.705V63.1C213.117 55.0643 206.603 48.55 198.567 48.55H62.2825Z" fill="#242427"/>
<path fill-rule="evenodd" clip-rule="evenodd" d="M133.092 164.95C135.101 164.95 136.73 166.579 136.73 168.587V208.6C136.73 210.609 135.101 212.237 133.092 212.237C131.084 212.237 129.455 210.609 129.455 208.6V168.587C129.455 166.579 131.084 164.95 133.092 164.95Z" fill="#242427"/>
<path fill-rule="evenodd" clip-rule="evenodd" d="M135.746 166.1C137.12 167.565 137.046 169.867 135.58 171.241L92.9003 211.254C91.4347 212.628 89.1328 212.553 87.7588 211.088C86.3848 209.622 86.4591 207.32 87.9247 205.946L130.605 165.934C132.07 164.56 134.372 164.634 135.746 166.1Z" fill="#242427"/>
<path fill-rule="evenodd" clip-rule="evenodd" d="M130.439 166.1C131.813 164.634 134.115 164.56 135.58 165.934L178.26 205.946C179.726 207.32 179.8 209.622 178.426 211.088C177.052 212.553 174.75 212.628 173.285 211.254L130.605 171.241C129.139 169.867 129.065 167.565 130.439 166.1Z" fill="#242427"/>
<path fill-rule="evenodd" clip-rule="evenodd" d="M179.051 66.553C179.821 67.9635 179.302 69.7314 177.892 70.5017L141.412 90.4238C138.169 92.1947 134.128 91.4336 131.751 88.6044L120.415 75.1086C119.848 74.4336 118.897 74.2258 118.1 74.6027L85.5911 89.9784C84.1383 90.6655 82.4034 90.0448 81.7163 88.592C81.0291 87.1391 81.6499 85.4043 83.1027 84.7172L115.611 69.3415C118.799 67.8337 122.603 68.665 124.871 71.3653L136.207 84.861C136.802 85.5683 137.812 85.7586 138.623 85.3158L175.102 65.3938C176.513 64.6235 178.281 65.1425 179.051 66.553Z" fill="#242427"/>
<path d="M84.3491 120.088C84.3491 118.079 85.9776 116.45 87.9866 116.45C89.9955 116.45 91.6241 118.079 91.6241 120.088V146.763C91.6241 148.772 89.9955 150.4 87.9866 150.4C85.9776 150.4 84.3491 148.772 84.3491 146.763V120.088Z" fill="#242427"/>
<path d="M101.324 95.8376C101.324 93.8286 102.953 92.2001 104.962 92.2001C106.97 92.2001 108.599 93.8286 108.599 95.8376V146.763C108.599 148.772 106.97 150.4 104.962 150.4C102.953 150.4 101.324 148.772 101.324 146.763V95.8376Z" fill="#242427"/>
<path d="M118.299 105.537C118.299 103.528 119.928 101.9 121.937 101.9C123.945 101.9 125.574 103.528 125.574 105.537V146.762C125.574 148.771 123.945 150.4 121.937 150.4C119.928 150.4 118.299 148.771 118.299 146.762V105.537Z" fill="#242427"/>
<path d="M135.274 110.387C135.274 108.378 136.903 106.75 138.912 106.75C140.92 106.75 142.549 108.378 142.549 110.387V146.762C142.549 148.771 140.92 150.4 138.912 150.4C136.903 150.4 135.274 148.771 135.274 146.762V110.387Z" fill="#242427"/>
<path d="M152.249 120.088C152.249 118.079 153.878 116.45 155.887 116.45C157.895 116.45 159.524 118.079 159.524 120.088V146.763C159.524 148.772 157.895 150.4 155.887 150.4C153.878 150.4 152.249 148.772 152.249 146.763V120.088Z" fill="#242427"/>
<path d="M169.224 129.787C169.224 127.778 170.853 126.15 172.862 126.15C174.87 126.15 176.499 127.778 176.499 129.787V146.762C176.499 148.771 174.87 150.4 172.862 150.4C170.853 150.4 169.224 148.771 169.224 146.762V129.787Z" fill="#242427"/>
<mask id="path-14-outside-1_6889_154374" maskUnits="userSpaceOnUse" x="213.6" y="169.903" width="22.5308" height="22.5308" fill="black">
<rect fill="white" x="213.6" y="169.903" width="22.5308" height="22.5308"/>
<path d="M225.112 175.325C225.238 174.966 225.751 174.978 225.86 175.344L226.985 179.115C227.033 179.279 227.182 179.392 227.352 179.396L231.287 179.492C231.668 179.502 231.814 179.993 231.5 180.21L228.261 182.445C228.121 182.542 228.059 182.718 228.107 182.881L229.232 186.653C229.341 187.018 228.918 187.31 228.615 187.078L225.489 184.688C225.353 184.584 225.167 184.579 225.026 184.676L221.787 186.911C221.473 187.128 221.065 186.816 221.192 186.456L222.499 182.744C222.556 182.583 222.502 182.404 222.367 182.301L219.24 179.91C218.937 179.679 219.108 179.195 219.489 179.204L223.424 179.3C223.594 179.304 223.748 179.198 223.804 179.038L225.112 175.325Z"/>
</mask>
<path d="M225.112 175.325C225.238 174.966 225.751 174.978 225.86 175.344L226.985 179.115C227.033 179.279 227.182 179.392 227.352 179.396L231.287 179.492C231.668 179.502 231.814 179.993 231.5 180.21L228.261 182.445C228.121 182.542 228.059 182.718 228.107 182.881L229.232 186.653C229.341 187.018 228.918 187.31 228.615 187.078L225.489 184.688C225.353 184.584 225.167 184.579 225.026 184.676L221.787 186.911C221.473 187.128 221.065 186.816 221.192 186.456L222.499 182.744C222.556 182.583 222.502 182.404 222.367 182.301L219.24 179.91C218.937 179.679 219.108 179.195 219.489 179.204L223.424 179.3C223.594 179.304 223.748 179.198 223.804 179.038L225.112 175.325Z" fill="#D9D9D9"/>
<path d="M223.804 179.038L219.849 177.644L223.804 179.038ZM222.499 182.744L218.543 181.351L222.499 182.744ZM222.367 182.301L219.82 185.632L222.367 182.301ZM225.489 184.688L228.036 181.356L225.489 184.688ZM225.026 184.676L222.645 181.224L225.026 184.676ZM229.232 186.653L233.251 185.455L229.232 186.653ZM228.615 187.078L226.068 190.41L228.615 187.078ZM228.261 182.445L225.879 178.993L228.261 182.445ZM228.107 182.881L232.126 181.683L228.107 182.881ZM231.5 180.21L229.119 176.758L231.5 180.21ZM226.985 179.115L222.965 180.313L226.985 179.115ZM225.86 175.344L221.841 176.542L225.86 175.344ZM225.112 175.325L229.067 176.718L225.112 175.325ZM221.841 176.542L222.965 180.313L231.004 177.917L229.879 174.146L221.841 176.542ZM227.25 183.589L231.184 183.685L231.389 175.3L227.455 175.204L227.25 183.589ZM229.119 176.758L225.879 178.993L230.642 185.897L233.882 183.662L229.119 176.758ZM224.088 184.079L225.213 187.851L233.251 185.455L232.126 181.683L224.088 184.079ZM231.163 183.746L228.036 181.356L222.942 188.019L226.068 190.41L231.163 183.746ZM222.645 181.224L219.405 183.459L224.168 190.363L227.408 188.128L222.645 181.224ZM225.148 187.849L226.455 184.137L218.543 181.351L217.236 185.063L225.148 187.849ZM224.914 178.969L221.788 176.579L216.693 183.242L219.82 185.632L224.914 178.969ZM219.387 183.397L223.321 183.493L223.526 175.108L219.592 175.012L219.387 183.397ZM227.76 180.431L229.067 176.718L221.156 173.932L219.849 177.644L227.76 180.431ZM223.321 183.493C225.308 183.541 227.1 182.305 227.76 180.431L219.849 177.644C220.396 176.092 221.88 175.067 223.526 175.108L223.321 183.493ZM221.788 176.579C224.712 178.815 223.067 183.487 219.387 183.397L219.592 175.012C215.149 174.903 213.163 180.543 216.693 183.242L221.788 176.579ZM226.455 184.137C227.115 182.263 226.493 180.176 224.914 178.969L219.82 185.632C218.512 184.632 217.997 182.904 218.543 181.351L226.455 184.137ZM219.405 183.459C222.435 181.369 226.37 184.377 225.148 187.849L217.236 185.063C215.76 189.255 220.51 192.887 224.168 190.363L219.405 183.459ZM228.036 181.356C226.457 180.149 224.281 180.096 222.645 181.224L227.408 188.128C226.052 189.063 224.249 189.019 222.942 188.019L228.036 181.356ZM225.213 187.851C224.161 184.323 228.238 181.51 231.163 183.746L226.068 190.41C229.598 193.109 234.52 189.713 233.251 185.455L225.213 187.851ZM225.879 178.993C224.244 180.121 223.52 182.175 224.088 184.079L232.126 181.683C232.597 183.261 231.998 184.962 230.642 185.897L225.879 178.993ZM231.184 183.685C227.504 183.595 226.089 178.848 229.119 176.758L233.882 183.662C237.54 181.139 235.832 175.408 231.389 175.3L231.184 183.685ZM222.965 180.313C223.533 182.218 225.263 183.54 227.25 183.589L227.455 175.204C229.1 175.244 230.533 176.339 231.004 177.917L222.965 180.313ZM229.879 174.146C228.61 169.887 222.632 169.741 221.156 173.932L229.067 176.718C227.845 180.191 222.893 180.07 221.841 176.542L229.879 174.146Z" fill="#242427" mask="url(#path-14-outside-1_6889_154374)"/>
<path d="M193.224 197.718L199.249 199.816M199.249 199.816L195.433 205.471M199.249 199.816L203.339 205.701M199.249 199.816L205.387 198.072M199.249 199.816L199.436 193.414" stroke="#242427" stroke-width="4.19386" stroke-linecap="round" stroke-linejoin="round"/>
<mask id="path-17-outside-2_6889_154374" maskUnits="userSpaceOnUse" x="23.8591" y="169.903" width="22.5308" height="22.5308" fill="black">
<rect fill="white" x="23.8591" y="169.903" width="22.5308" height="22.5308"/>
<path d="M34.8781 175.325C34.7515 174.966 34.2386 174.978 34.1296 175.344L33.0053 179.115C32.9565 179.279 32.8081 179.392 32.6376 179.396L28.7033 179.492C28.322 179.502 28.1755 179.993 28.4893 180.21L31.7288 182.445C31.8692 182.542 31.9313 182.718 31.8825 182.881L30.7582 186.653C30.6492 187.018 31.0716 187.31 31.3745 187.078L34.501 184.688C34.6365 184.584 34.8232 184.579 34.9636 184.676L38.2031 186.911C38.517 187.128 38.9246 186.816 38.7979 186.456L37.4907 182.744C37.434 182.583 37.4874 182.404 37.6229 182.301L40.7494 179.91C41.0523 179.679 40.8819 179.195 40.5007 179.204L36.5663 179.3C36.3958 179.304 36.242 179.198 36.1854 179.038L34.8781 175.325Z"/>
</mask>
<path d="M34.8781 175.325C34.7515 174.966 34.2386 174.978 34.1296 175.344L33.0053 179.115C32.9565 179.279 32.8081 179.392 32.6376 179.396L28.7033 179.492C28.322 179.502 28.1755 179.993 28.4893 180.21L31.7288 182.445C31.8692 182.542 31.9313 182.718 31.8825 182.881L30.7582 186.653C30.6492 187.018 31.0716 187.31 31.3745 187.078L34.501 184.688C34.6365 184.584 34.8232 184.579 34.9636 184.676L38.2031 186.911C38.517 187.128 38.9246 186.816 38.7979 186.456L37.4907 182.744C37.434 182.583 37.4874 182.404 37.6229 182.301L40.7494 179.91C41.0523 179.679 40.8819 179.195 40.5007 179.204L36.5663 179.3C36.3958 179.304 36.242 179.198 36.1854 179.038L34.8781 175.325Z" fill="#D9D9D9"/>
<path d="M36.1854 179.038L40.1411 177.644L36.1854 179.038ZM37.4907 182.744L41.4464 181.351L37.4907 182.744ZM37.6229 182.301L40.1701 185.632L37.6229 182.301ZM34.501 184.688L31.9537 181.356L34.501 184.688ZM34.9636 184.676L37.3451 181.224L34.9636 184.676ZM30.7582 186.653L26.7391 185.455L30.7582 186.653ZM31.3745 187.078L33.9217 190.41L31.3745 187.078ZM31.7288 182.445L34.1103 178.993L31.7288 182.445ZM31.8825 182.881L27.8635 181.683L31.8825 182.881ZM28.4893 180.21L30.8708 176.758L28.4893 180.21ZM33.0053 179.115L37.0243 180.313L33.0053 179.115ZM34.1296 175.344L38.1487 176.542L34.1296 175.344ZM34.8781 175.325L30.9224 176.718L34.8781 175.325ZM38.1487 176.542L37.0243 180.313L28.9862 177.917L30.1106 174.146L38.1487 176.542ZM32.7401 183.589L28.8057 183.685L28.6008 175.3L32.5352 175.204L32.7401 183.589ZM30.8708 176.758L34.1103 178.993L29.3474 185.897L26.1079 183.662L30.8708 176.758ZM35.9016 184.079L34.7772 187.851L26.7391 185.455L27.8635 181.683L35.9016 184.079ZM28.8273 183.746L31.9537 181.356L37.0482 188.019L33.9217 190.41L28.8273 183.746ZM37.3451 181.224L40.5846 183.459L35.8216 190.363L32.5821 188.128L37.3451 181.224ZM34.8422 187.849L33.5349 184.137L41.4464 181.351L42.7537 185.063L34.8422 187.849ZM35.0757 178.969L38.2021 176.579L43.2966 183.242L40.1701 185.632L35.0757 178.969ZM40.6031 183.397L36.6687 183.493L36.4638 175.108L40.3982 175.012L40.6031 183.397ZM32.2296 180.431L30.9224 176.718L38.8339 173.932L40.1411 177.644L32.2296 180.431ZM36.6687 183.493C34.6819 183.541 32.8898 182.305 32.2296 180.431L40.1411 177.644C39.5943 176.092 38.1097 175.067 36.4638 175.108L36.6687 183.493ZM38.2021 176.579C35.2776 178.815 36.9228 183.487 40.6031 183.397L40.3982 175.012C44.8409 174.903 46.827 180.543 43.2966 183.242L38.2021 176.579ZM33.5349 184.137C32.8748 182.263 33.4968 180.176 35.0757 178.969L40.1701 185.632C41.478 184.632 41.9933 182.904 41.4464 181.351L33.5349 184.137ZM40.5846 183.459C37.5543 181.369 33.6194 184.377 34.8422 187.849L42.7537 185.063C44.2298 189.255 39.4796 192.887 35.8216 190.363L40.5846 183.459ZM31.9537 181.356C33.5326 180.149 35.7091 180.096 37.3451 181.224L32.5821 188.128C33.9373 189.063 35.7403 189.019 37.0482 188.019L31.9537 181.356ZM34.7772 187.851C35.829 184.323 31.7518 181.51 28.8273 183.746L33.9217 190.41C30.3913 193.109 25.4695 189.713 26.7391 185.455L34.7772 187.851ZM34.1103 178.993C35.7462 180.121 36.4694 182.175 35.9016 184.079L27.8635 181.683C27.3931 183.261 27.9922 184.962 29.3474 185.897L34.1103 178.993ZM28.8057 183.685C32.486 183.595 33.9011 178.848 30.8708 176.758L26.1079 183.662C22.4498 181.139 24.1581 175.408 28.6008 175.3L28.8057 183.685ZM37.0243 180.313C36.4565 182.218 34.7269 183.54 32.7401 183.589L32.5352 175.204C30.8893 175.244 29.4565 176.339 28.9862 177.917L37.0243 180.313ZM30.1106 174.146C31.3802 169.887 37.3578 169.741 38.8339 173.932L30.9224 176.718C32.1452 180.191 37.0969 180.07 38.1487 176.542L30.1106 174.146Z" fill="#242427" mask="url(#path-17-outside-2_6889_154374)"/>
<path d="M66.7661 197.718L60.7403 199.816M60.7403 199.816L64.5571 205.471M60.7403 199.816L56.6508 205.701M60.7403 199.816L54.6026 198.072M60.7403 199.816L60.5539 193.414" stroke="#242427" stroke-width="4.19386" stroke-linecap="round" stroke-linejoin="round"/>
</svg>
