<svg width="24" height="25" viewBox="0 0 24 25" fill="none" xmlns="http://www.w3.org/2000/svg">
<rect y="0.989197" width="23.0216" height="23.0216" rx="5.03597" fill="#F5F378"/>
<path d="M3.36722 21.5538C3.12581 21.2402 3.0069 20.8495 3.03275 20.4546V13.4374C3.00649 13.0425 3.12544 12.6516 3.36722 12.3382C3.49173 12.2055 3.6441 12.1021 3.81336 12.0354C3.98262 11.9687 4.16456 11.9404 4.34609 11.9524H7.54137C8.64288 11.9524 9.53925 12.162 10.2305 12.5812C10.563 12.7759 10.8353 13.0586 11.0174 13.3981C11.1996 13.7376 11.2845 14.1208 11.2629 14.5055C11.2795 15.02 11.1074 15.5228 10.779 15.9192C10.4259 16.3167 9.95865 16.5954 9.44114 16.7174C10.0205 16.807 10.5563 17.0788 10.9708 17.4934C11.1674 17.6959 11.3212 17.9358 11.4231 18.199C11.525 18.4622 11.5729 18.7432 11.5639 19.0253C11.5833 19.6049 11.4057 20.174 11.06 20.6396C10.6856 21.1035 10.1807 21.4444 9.6106 21.6185C8.88974 21.846 8.1366 21.9545 7.38082 21.9396H4.34609C4.16456 21.9516 3.98262 21.9233 3.81336 21.8566C3.6441 21.7899 3.49173 21.6865 3.36722 21.5538ZM8.04976 15.7564C8.21569 15.7035 8.36027 15.5988 8.46227 15.4576C8.5623 15.3074 8.61297 15.1296 8.6072 14.9492C8.61618 14.8211 8.59293 14.6927 8.53957 14.5759C8.48621 14.459 8.40444 14.3574 8.30172 14.2803C8.01502 14.1114 7.68375 14.0336 7.35184 14.0573H5.58585V15.8411H7.35407C7.58887 15.8496 7.82339 15.818 8.04753 15.7475L8.04976 15.7564ZM8.51355 19.5716C8.62817 19.4848 8.71939 19.3709 8.77895 19.2401C8.83851 19.1093 8.86455 18.9657 8.85471 18.8224C8.86771 18.6783 8.84383 18.5334 8.78531 18.4011C8.7268 18.2689 8.63557 18.1537 8.52024 18.0665C8.19432 17.892 7.8252 17.8146 7.45664 17.8435H5.58585V19.8124H7.45441C7.82401 19.8398 8.19309 19.7526 8.51132 19.5626L8.51355 19.5716Z" fill="#242427"/>
<path d="M15.3885 21.8206C15.0561 21.6341 14.7744 21.3693 14.5679 21.0491C14.5208 21.3913 14.3445 21.7024 14.0751 21.9187C13.8759 22.0467 13.6429 22.112 13.4062 22.106C13.2359 22.1169 13.0654 22.0891 12.9074 22.0246C12.7494 21.9601 12.6082 21.8606 12.4942 21.7336C12.2643 21.4211 12.1528 21.037 12.1798 20.6499V13.033C12.1552 12.6545 12.2667 12.2796 12.4942 11.9761C12.6056 11.8515 12.7436 11.7535 12.898 11.6894C13.0524 11.6254 13.2192 11.5968 13.3861 11.6059C13.5563 11.5937 13.727 11.6208 13.8852 11.6849C14.0433 11.7491 14.1845 11.8487 14.2981 11.9761C14.5256 12.2796 14.6371 12.6545 14.6125 13.033V15.2427C14.6128 15.3054 14.6083 15.368 14.5991 15.43C14.5991 15.4858 14.579 15.5527 14.5701 15.6285C14.8071 15.2951 15.1219 15.0248 15.4872 14.841C15.8525 14.6571 16.2572 14.5654 16.6661 14.5738C17.1959 14.5728 17.7152 14.7212 18.1645 15.0019C18.6517 15.3132 19.0388 15.7583 19.2794 16.284C19.576 16.9278 19.7202 17.6313 19.7008 18.3399C19.7191 19.0453 19.5829 19.7462 19.3017 20.3935C19.0779 20.9146 18.7037 21.3572 18.2271 21.6646C17.7505 21.972 17.193 22.1304 16.626 22.1194C16.1945 22.1293 15.7679 22.0263 15.3885 21.8206ZM16.5435 19.9944C16.7586 19.8173 16.9232 19.5865 17.0207 19.3254C17.1416 19.0144 17.1999 18.6825 17.1923 18.3488C17.201 18.0034 17.1427 17.6597 17.0207 17.3365C16.9267 17.0773 16.7612 16.85 16.5435 16.6809C16.3348 16.5287 16.0814 16.4503 15.8233 16.4579C15.5695 16.4519 15.3208 16.5304 15.1164 16.6809C14.8994 16.8507 14.7341 17.0778 14.6392 17.3365C14.5193 17.6617 14.4626 18.0068 14.472 18.3533C14.4656 18.6868 14.5239 19.0185 14.6437 19.3299C14.7419 19.5906 14.9063 19.8212 15.1209 19.9988C15.3215 20.1588 15.5712 20.2446 15.8277 20.2419C16.0876 20.2439 16.3404 20.1566 16.5435 19.9944Z" fill="#242427"/>
<path d="M13.1286 7.55422L13.324 5.93058L13.864 6.25654L14.2515 7.14255L13.1286 7.55422Z" fill="white" stroke="#242427" stroke-width="0.377146" stroke-linecap="round" stroke-linejoin="round"/>
<path d="M19.3228 3.36466L11.8713 4.92518L13.8347 6.16731L14.8061 8.41741L19.3228 3.36466Z" fill="white" stroke="#242427" stroke-width="0.377146" stroke-linecap="round" stroke-linejoin="round"/>
<path d="M13.8355 6.16735C14.2133 5.9068 15.0276 5.42777 15.4075 5.25128" stroke="#242427" stroke-width="0.377146" stroke-linecap="round" stroke-linejoin="round"/>
<path d="M15.9515 4.91522C16.6832 4.57162 18.2555 3.73293 19.2481 3.36266" stroke="#242427" stroke-width="0.377146" stroke-linecap="round" stroke-linejoin="round"/>
<path d="M19.3132 8.85395L19.4278 8.70415L19.3132 8.85395C19.4856 8.98573 19.7259 8.81996 19.6639 8.61204L19.5514 8.23473L19.8755 8.01116C20.0541 7.88795 19.9707 7.60819 19.7538 7.60289L19.3602 7.59327L19.2477 7.21596C19.1857 7.00804 18.8939 7.00091 18.8218 7.20555L18.691 7.57692L18.2974 7.5673C18.0805 7.562 17.9836 7.83736 18.1559 7.96914L18.4687 8.20827L18.3379 8.57964C18.2659 8.78429 18.4978 8.9616 18.6764 8.83839L19.0005 8.61482L19.3132 8.85395Z" fill="#D9D9D9" stroke="#242427" stroke-width="0.377146"/>
<path d="M16.1269 9.48985L16.6688 9.67848M16.6688 9.67848L16.3256 10.1871M16.6688 9.67848L17.0366 10.2078M16.6688 9.67848L17.2207 9.52169M16.6688 9.67848L16.6856 9.10278" stroke="#242427" stroke-width="0.377146" stroke-linecap="round" stroke-linejoin="round"/>
<path d="M11.0789 10.6908C10.1384 9.69089 11.2475 8.09681 12.1753 8.42539C12.5677 8.56434 12.3804 9.07269 11.9319 9.05963C11.411 9.04447 11.0074 7.67378 12.2514 7.37176" stroke="#242427" stroke-width="0.377146" stroke-linecap="round" stroke-linejoin="round"/>
</svg>
