<svg width="14" height="14" viewBox="0 0 14 14" fill="none" xmlns="http://www.w3.org/2000/svg">
<path d="M11 1.66667H11.6667C12.1695 1.66492 12.6545 1.8526 13.0251 2.19235C13.3957 2.53209 13.6248 2.99897 13.6667 3.5L0.333344 3.5C0.375239 2.99897 0.604309 2.53209 0.974939 2.19235C1.34557 1.8526 1.83056 1.66492 2.33334 1.66667L3.00001 1.66667V1C3.00001 0.82319 3.07025 0.65362 3.19527 0.528596C3.3203 0.403572 3.48987 0.333334 3.66668 0.333334C3.84349 0.333334 4.01306 0.403572 4.13808 0.528596C4.26311 0.65362 4.33334 0.82319 4.33334 1V1.66667L9.66668 1.66667V1C9.66668 0.82319 9.73691 0.65362 9.86194 0.528596C9.98696 0.403572 10.1565 0.333334 10.3333 0.333334C10.5102 0.333334 10.6797 0.403572 10.8047 0.528596C10.9298 0.65362 11 0.82319 11 1V1.66667Z" fill="#B2B2B4"/>
<path fill-rule="evenodd" clip-rule="evenodd" d="M0.91913 13.0809C0.544057 12.7058 0.333344 12.1971 0.333344 11.6667L0.333344 4.5L13.6667 4.5L13.6667 11.6667C13.6667 12.1971 13.456 12.7058 13.0809 13.0809C12.7058 13.456 12.1971 13.6667 11.6667 13.6667L2.33334 13.6667C1.80291 13.6667 1.2942 13.456 0.91913 13.0809ZM3.88729 6.31264C3.69842 6.51067 3.5509 6.74433 3.45334 7C3.34961 7.27496 3.29544 7.56613 3.29334 7.86C3.30298 8.39818 3.44738 8.92536 3.71334 9.39333C4.03154 9.94389 4.43422 10.4411 4.90668 10.8667C5.47232 11.3773 6.0838 11.8348 6.73334 12.2333C6.77421 12.2621 6.81915 12.2846 6.86668 12.3C6.90877 12.319 6.95393 12.3303 7.00001 12.3333C7.04488 12.3359 7.08988 12.3314 7.13334 12.32L7.27334 12.2533C7.92048 11.8543 8.52969 11.3969 9.09334 10.8867C9.5643 10.4596 9.96679 9.96272 10.2867 9.41333C10.5526 8.94536 10.697 8.41818 10.7067 7.88C10.7103 7.57912 10.6559 7.28036 10.5467 7C10.4505 6.73755 10.3057 6.49556 10.12 6.28667C9.93004 6.09285 9.70342 5.93875 9.45334 5.83333C9.19105 5.72595 8.91009 5.67157 8.62668 5.67333C8.28728 5.66476 7.95303 5.7576 7.66668 5.94C7.40812 6.10967 7.19338 6.33812 7.04001 6.60667C7.03586 6.61357 7.03 6.61928 7.02299 6.62325C7.01598 6.62721 7.00806 6.6293 7.00001 6.6293C6.99196 6.6293 6.98404 6.62721 6.97703 6.62325C6.97002 6.61928 6.96416 6.61357 6.96001 6.60667C6.80734 6.33974 6.59518 6.1116 6.34001 5.94C6.05285 5.75321 5.7158 5.6579 5.37334 5.66667C5.09103 5.6738 4.81269 5.7349 4.55334 5.84667C4.30258 5.95621 4.07615 6.11462 3.88729 6.31264Z" fill="#B2B2B4"/>
</svg>
