<svg width="15" height="14" viewBox="0 0 15 14" fill="none" xmlns="http://www.w3.org/2000/svg">
<path fill-rule="evenodd" clip-rule="evenodd" d="M10.6539 7.498C10.5171 7.50144 10.381 7.47747 10.2536 7.42748C10.1262 7.3775 10.0101 7.30252 9.91215 7.20696C9.81419 7.11141 9.73635 6.9972 9.68321 6.87109C9.63008 6.74498 9.60273 6.60951 9.60277 6.47266C9.60282 6.33581 9.63026 6.20035 9.68347 6.07428C9.73669 5.9482 9.8146 5.83405 9.91263 5.73855C10.0107 5.64306 10.1268 5.56816 10.2542 5.51825C10.3817 5.46835 10.5178 5.44447 10.6546 5.448C10.9219 5.4549 11.1759 5.56597 11.3625 5.75751C11.5491 5.94905 11.6535 6.20592 11.6534 6.47332C11.6534 6.74073 11.5488 6.99753 11.3621 7.18895C11.1754 7.38037 10.9212 7.49127 10.6539 7.498M7.37792 7.498C7.24102 7.50144 7.10482 7.47745 6.97735 7.42744C6.84987 7.37742 6.7337 7.30239 6.63567 7.20677C6.53765 7.11115 6.45976 6.99688 6.40659 6.87068C6.35342 6.74449 6.32606 6.60893 6.3261 6.47199C6.32614 6.33505 6.3536 6.19951 6.40685 6.07335C6.4601 5.94719 6.53807 5.83297 6.63615 5.73741C6.73424 5.64186 6.85046 5.5669 6.97797 5.51697C7.10548 5.46704 7.24169 5.44313 7.37858 5.44667C7.64608 5.45357 7.90029 5.56471 8.08701 5.75638C8.27373 5.94804 8.37819 6.20507 8.3781 6.47266C8.37801 6.74024 8.27339 6.9972 8.08655 7.18875C7.8997 7.3803 7.64542 7.49127 7.37792 7.498M4.10125 7.498C3.96444 7.50144 3.82833 7.47747 3.70094 7.42748C3.57355 7.3775 3.45745 7.30252 3.35949 7.20696C3.26152 7.11141 3.18368 6.9972 3.13055 6.87109C3.07742 6.74498 3.05006 6.60951 3.05011 6.47266C3.05015 6.33581 3.07759 6.20035 3.13081 6.07428C3.18402 5.9482 3.26194 5.83405 3.35996 5.73855C3.45799 5.64306 3.57413 5.56816 3.70156 5.51825C3.82899 5.46835 3.96511 5.44447 4.10192 5.448C4.36924 5.4549 4.62328 5.56597 4.80988 5.75751C4.99648 5.94905 5.10086 6.20592 5.10078 6.47332C5.10069 6.74073 4.99614 6.99753 4.80941 7.18895C4.62269 7.38037 4.36857 7.49127 4.10125 7.498M7.33392 0C3.44525 0 0.28125 2.876 0.28125 6.41133C0.28125 7.92467 0.92125 9.984 2.70392 11.3133L2.49392 13.5093C2.48603 13.5903 2.50032 13.6718 2.53524 13.7452C2.57017 13.8186 2.62441 13.8812 2.69217 13.9261C2.75993 13.9711 2.83864 13.9967 2.91986 14.0003C3.00109 14.004 3.08176 13.9854 3.15325 13.9467L5.44058 12.716C5.72525 12.7453 6.56125 12.8227 7.33392 12.8227C11.2226 12.8227 14.3866 9.94667 14.3866 6.41133C14.3866 2.876 11.2226 0 7.33392 0Z" fill="#B2B2B4"/>
</svg>
