<svg width="14" height="14" viewBox="0 0 14 14" fill="none" xmlns="http://www.w3.org/2000/svg">
<path d="M6.66661 13.6667C10.3533 13.6667 13.3333 10.6867 13.3333 7C13.3333 3.31333 10.3533 0.333334 6.66661 0.333334C2.97994 0.333334 -6.10352e-05 3.31333 -6.10352e-05 7C-6.10352e-05 10.6867 2.98661 13.6667 6.66661 13.6667ZM8.66661 4.33333C9.03327 4.33333 9.33327 4.63333 9.33327 5C9.33327 5.36667 9.03327 5.66667 8.66661 5.66667C8.29994 5.66667 7.99994 5.36667 7.99994 5C7.99994 4.63333 8.29994 4.33333 8.66661 4.33333ZM4.66661 4.33333C5.03327 4.33333 5.33327 4.63333 5.33327 5C5.33327 5.36667 5.03327 5.66667 4.66661 5.66667C4.29994 5.66667 3.99994 5.36667 3.99994 5C3.99994 4.63333 4.29994 4.33333 4.66661 4.33333ZM4.49994 7C4.49994 8.19333 5.47327 9.16667 6.66661 9.16667C7.85994 9.16667 8.83327 8.19333 8.83327 7H9.83327C9.83327 8.74667 8.41327 10.1667 6.66661 10.1667C4.91994 10.1667 3.49994 8.74667 3.49994 7H4.49994Z" fill="#B2B2B4"/>
</svg>
