<svg width="12" height="15" viewBox="0 0 12 15" fill="none" xmlns="http://www.w3.org/2000/svg">
<path d="M5.04919 0.0269167C3.39187 -0.0180176 -1.44643 7.02918 0.422599 11.1785C0.422599 11.1785 1.88047 14.213 5.64447 14.3273C9.40846 14.4416 10.5903 11.5216 10.5903 11.5216C12.1578 8.2519 9.49566 3.66704 8.66702 3.64457C8.20937 3.63216 8.2273 4.4607 7.86085 4.45077C7.4944 4.44083 7.40728 3.9468 6.98725 2.77097C6.68857 1.93482 5.71212 0.0448905 5.04919 0.0269167Z" fill="#FF5E5E"/>
<path d="M5.0329 7.37681C5.36563 7.05139 5.88003 7.05139 6.21275 7.37681C6.97986 8.12709 8.22283 9.57038 8.22283 11.0454C8.22283 12.4454 7.08949 13.6454 5.62283 13.6454C4.15616 13.6454 3.02283 12.5121 3.02283 11.0454C3.02283 9.57038 4.2658 8.12709 5.0329 7.37681Z" fill="#FFA3A3"/>
</svg>
