<svg width="16" height="16" viewBox="0 0 16 16" fill="none" xmlns="http://www.w3.org/2000/svg">
<g clip-path="url(#clip0_6642_44548)">
<path fill-rule="evenodd" clip-rule="evenodd" d="M5.00001 7.76498C5.32831 7.76498 5.6534 7.70032 5.95672 7.57468C6.26003 7.44905 6.53563 7.2649 6.76778 7.03275C6.99992 6.8006 7.18407 6.52501 7.30971 6.22169C7.43535 5.91838 7.50001 5.59329 7.50001 5.26498C7.50001 4.93668 7.43535 4.61159 7.30971 4.30828C7.18407 4.00496 6.99992 3.72936 6.76778 3.49722C6.53563 3.26507 6.26003 3.08092 5.95672 2.95529C5.6534 2.82965 5.32831 2.76498 5.00001 2.76498C4.33697 2.76498 3.70108 3.02838 3.23224 3.49722C2.7634 3.96606 2.50001 4.60194 2.50001 5.26498C2.50001 5.92803 2.7634 6.56391 3.23224 7.03275C3.70108 7.50159 4.33697 7.76498 5.00001 7.76498M5.33334 11.8857C5.33334 11.043 5.84734 9.79565 6.98668 8.85098C6.42468 8.65298 5.76801 8.52898 5.00001 8.52898C1.64001 8.52898 0.333344 10.821 0.333344 11.8857C0.333344 12.9523 3.11534 13.235 5.00001 13.235C5.31401 13.235 5.65334 13.2263 6.00068 13.2083C5.56001 12.857 5.33334 12.417 5.33334 11.8857Z" fill="#B2B2B4" fill-opacity="0.72"/>
<path fill-rule="evenodd" clip-rule="evenodd" d="M11 8.52965C7.64001 8.52965 6.33334 10.821 6.33334 11.8863C6.33334 12.9517 9.11534 13.2357 11 13.2357C12.8847 13.2357 15.6667 12.9517 15.6667 11.8863C15.6667 10.821 14.36 8.52965 11 8.52965ZM11 7.76498C11.3283 7.76498 11.6534 7.70032 11.9567 7.57468C12.26 7.44905 12.5356 7.2649 12.7678 7.03275C12.9999 6.8006 13.1841 6.52501 13.3097 6.22169C13.4353 5.91838 13.5 5.59329 13.5 5.26498C13.5 4.93668 13.4353 4.61159 13.3097 4.30828C13.1841 4.00496 12.9999 3.72936 12.7678 3.49722C12.5356 3.26507 12.26 3.08092 11.9567 2.95529C11.6534 2.82965 11.3283 2.76498 11 2.76498C10.337 2.76498 9.70108 3.02838 9.23224 3.49722C8.7634 3.96606 8.50001 4.60194 8.50001 5.26498C8.50001 5.92803 8.7634 6.56391 9.23224 7.03275C9.70108 7.50159 10.337 7.76498 11 7.76498" fill="#B2B2B4"/>
</g>
<defs>
<clipPath id="clip0_6642_44548">
<rect width="16" height="16" fill="white"/>
</clipPath>
</defs>
</svg>
