<svg width="20" height="20" viewBox="0 0 20 20" fill="none" xmlns="http://www.w3.org/2000/svg">
<path d="M2.93002 19.4899L15.0579 15.1585L5.00908 5.19635L0.677702 17.3242C0.575334 17.6344 0.562741 17.9672 0.641376 18.2842C0.72001 18.6013 0.886669 18.8896 1.12213 19.116C1.35759 19.3424 1.65225 19.4977 1.97213 19.5638C2.29201 19.63 2.62408 19.6043 2.93002 19.4899Z" fill="#F5F378"/>
<path d="M15.4852 14.8991C16.5334 13.8509 15.104 10.7237 12.2973 7.91692C9.49055 5.11019 6.3633 3.63753 5.31511 4.72037C4.26692 5.80321 5.69627 8.89582 8.503 11.7025C11.3097 14.5093 14.4543 15.9386 15.4852 14.8991Z" fill="#F5F378"/>
<path d="M15.4852 14.8991C16.5334 13.8509 15.104 10.7237 12.2973 7.91692C9.49055 5.11019 6.3633 3.63753 5.31511 4.72037C4.26692 5.80321 5.69627 8.89582 8.503 11.7025C11.3097 14.5093 14.4543 15.9386 15.4852 14.8991Z" fill="black" fill-opacity="0.35"/>
<path d="M8.56377 6.67017C8.92653 5.45019 8.89623 4.14699 8.47714 2.94519" stroke="#FFC98D" stroke-width="1.38063" stroke-miterlimit="10" stroke-linecap="round"/>
<path d="M14.9732 8.57548C16.2206 7.63059 17.7398 7.11404 19.3046 7.10281" stroke="#FF99B1" stroke-width="1.38063" stroke-miterlimit="10" stroke-linecap="round"/>
<path d="M11.4205 11.8674C12.9002 11.2537 14.5311 11.1027 16.0984 11.4343C16.6031 11.5267 17.0967 11.6718 17.5711 11.8674" stroke="#DCC1FF" stroke-width="1.38063" stroke-miterlimit="10" stroke-linecap="round"/>
<path d="M10.815 8.66208C12.4728 7.36053 13.5599 5.46579 13.847 3.37781" stroke="#7FEC93" stroke-width="1.38063" stroke-miterlimit="10" stroke-linecap="round"/>
<path d="M12.8073 1.99198L11.941 2.42512C11.8481 2.46413 11.7441 2.46807 11.6485 2.4362C11.5529 2.40433 11.4721 2.33882 11.4212 2.25186L10.9881 1.38559C10.9491 1.29267 10.9451 1.18874 10.977 1.09314C11.0089 0.997531 11.0744 0.916753 11.1613 0.865823L12.0276 0.432686C12.1205 0.393675 12.2245 0.389738 12.3201 0.421607C12.4157 0.453475 12.4964 0.51898 12.5474 0.605941L12.9805 1.47222C13.0258 1.56422 13.033 1.67038 13.0006 1.76767C12.9682 1.86496 12.8987 1.94555 12.8073 1.99198Z" fill="#8CD5FE"/>
<path d="M19.1315 15.4189L19.3914 14.466C19.4072 14.4205 19.4128 14.3721 19.4078 14.3241C19.4029 14.2762 19.3875 14.23 19.3627 14.1887C19.3379 14.1474 19.3043 14.112 19.2644 14.0851C19.2245 14.0582 19.1791 14.0403 19.1315 14.0328L18.1786 13.773C18.1331 13.7572 18.0847 13.7516 18.0368 13.7565C17.9888 13.7615 17.9426 13.7769 17.9013 13.8017C17.86 13.8265 17.8246 13.86 17.7977 13.8999C17.7708 13.9399 17.7529 13.9853 17.7455 14.0328L17.4856 14.8991C17.4698 14.9446 17.4642 14.993 17.4691 15.041C17.4741 15.0889 17.4895 15.1351 17.5143 15.1764C17.5391 15.2177 17.5726 15.2531 17.6126 15.28C17.6525 15.3069 17.6979 15.3248 17.7455 15.3323L18.6984 15.5921C18.8716 15.7654 19.0449 15.6788 19.1315 15.4189Z" fill="#FFC98D"/>
<path d="M17.1357 5.62988C17.2899 5.62988 17.4406 5.58416 17.5688 5.49849C17.6971 5.41282 17.797 5.29105 17.856 5.14859C17.915 5.00613 17.9304 4.84937 17.9004 4.69813C17.8703 4.5469 17.796 4.40798 17.687 4.29894C17.578 4.1899 17.439 4.11565 17.2878 4.08557C17.1366 4.05549 16.9798 4.07092 16.8373 4.12993C16.6949 4.18894 16.5731 4.28887 16.4874 4.41709C16.4018 4.5453 16.356 4.69604 16.356 4.85023C16.356 5.05701 16.4382 5.25532 16.5844 5.40153C16.7306 5.54774 16.9289 5.62988 17.1357 5.62988Z" fill="#7FEC93"/>
<path d="M1.54976 9.00897C1.70396 9.00897 1.85469 8.96325 1.98291 8.87758C2.11112 8.79191 2.21105 8.67014 2.27006 8.52768C2.32907 8.38522 2.34451 8.22846 2.31442 8.07722C2.28434 7.92599 2.21009 7.78707 2.10105 7.67803C1.99202 7.56899 1.8531 7.49474 1.70186 7.46466C1.55062 7.43457 1.39386 7.45001 1.2514 7.50902C1.10894 7.56803 0.987174 7.66796 0.901505 7.79618C0.815837 7.92439 0.770111 8.07512 0.770111 8.22932C0.770111 8.4361 0.852252 8.63441 0.998464 8.78062C1.14468 8.92683 1.34298 9.00897 1.54976 9.00897Z" fill="#FFC98D"/>
<path d="M12.4574 19.2303C12.6459 19.2303 12.8301 19.1744 12.9868 19.0697C13.1435 18.965 13.2656 18.8162 13.3378 18.6421C13.4099 18.4679 13.4287 18.2763 13.392 18.0915C13.3552 17.9066 13.2645 17.7369 13.1312 17.6036C12.9979 17.4703 12.8281 17.3796 12.6433 17.3428C12.4584 17.306 12.2668 17.3249 12.0927 17.397C11.9186 17.4692 11.7698 17.5913 11.6651 17.748C11.5604 17.9047 11.5045 18.0889 11.5045 18.2774C11.5045 18.4025 11.5291 18.5264 11.577 18.6421C11.6249 18.7577 11.6951 18.8627 11.7836 18.9512C11.8721 19.0397 11.9771 19.1099 12.0927 19.1578C12.2083 19.2057 12.3323 19.2303 12.4574 19.2303Z" fill="#FF99B1"/>
</svg>
