<svg width="47" height="17" viewBox="0 0 47 17" fill="none" xmlns="http://www.w3.org/2000/svg">
<g clip-path="url(#clip0_5794_133970)">
<path d="M0.911122 15.3187C0.553359 14.854 0.377152 14.2748 0.415461 13.6896V3.29064C0.376538 2.70535 0.55281 2.126 0.911122 1.66157C1.09564 1.465 1.32144 1.31177 1.57228 1.21292C1.82311 1.11408 2.09274 1.07206 2.36175 1.08991H7.09697C8.72934 1.08991 10.0577 1.40052 11.0821 2.02175C11.5748 2.31029 11.9783 2.7292 12.2483 3.23234C12.5182 3.73549 12.6441 4.30336 12.612 4.87345C12.6366 5.63588 12.3816 6.38099 11.895 6.96844C11.3716 7.55749 10.6792 7.97063 9.91232 8.15142C10.7709 8.28408 11.5649 8.68687 12.1791 9.30135C12.4705 9.60139 12.6985 9.95701 12.8495 10.347C13.0005 10.737 13.0714 11.1535 13.0581 11.5715C13.0869 12.4304 12.8236 13.2738 12.3113 13.9639C11.7565 14.6513 11.0083 15.1566 10.1635 15.4145C9.09518 15.7517 7.97906 15.9124 6.85905 15.8903H2.36175C2.09274 15.9082 1.82311 15.8662 1.57228 15.7673C1.32144 15.6685 1.09564 15.5152 0.911122 15.3187ZM7.85037 6.72722C8.09627 6.64883 8.31054 6.49363 8.46168 6.28443C8.60993 6.06176 8.68501 5.79839 8.67647 5.53103C8.68978 5.34113 8.65532 5.15093 8.57625 4.97777C8.49717 4.80461 8.37599 4.65401 8.22377 4.5397C7.79889 4.28939 7.30797 4.17415 6.81609 4.20926H4.199V6.85279H6.8194C7.16736 6.8654 7.51491 6.81846 7.84707 6.714L7.85037 6.72722ZM8.53769 12.3811C8.70755 12.2525 8.84272 12.0837 8.93099 11.8899C9.01926 11.6961 9.05785 11.4833 9.04326 11.2708C9.06253 11.0573 9.02713 10.8425 8.94042 10.6465C8.8537 10.4505 8.71852 10.2799 8.5476 10.1506C8.0646 9.89199 7.51759 9.77731 6.9714 9.82014H4.199V12.7379H6.96809C7.51583 12.7786 8.06278 12.6494 8.53438 12.3678L8.53769 12.3811Z" fill="white"/>
<path d="M14.452 3.94496C14.2724 3.78591 14.1287 3.59056 14.0302 3.37182C13.9318 3.15308 13.8809 2.91594 13.8809 2.67607C13.8809 2.4362 13.9318 2.19906 14.0302 1.98033C14.1287 1.76159 14.2724 1.56624 14.452 1.40718C14.8502 1.06335 15.3636 0.882756 15.8894 0.901609C16.4021 0.883363 16.9019 1.06458 17.2838 1.40718C17.4593 1.56873 17.5993 1.76489 17.6951 1.9833C17.7909 2.2017 17.8403 2.43759 17.8403 2.67607C17.8403 2.91456 17.7909 3.15045 17.6951 3.36885C17.5993 3.58725 17.4593 3.78342 17.2838 3.94496C16.8975 4.28669 16.395 4.46759 15.8795 4.45054C15.3567 4.46951 14.8463 4.28874 14.452 3.94496ZM14.5048 15.7186C14.1614 15.2728 13.9922 14.7171 14.029 14.1556V7.21632C13.9918 6.65881 14.1612 6.10712 14.5048 5.66656C14.8715 5.32655 15.353 5.13761 15.853 5.13761C16.3531 5.13761 16.8346 5.32655 17.2012 5.66656C17.54 6.11416 17.7044 6.66967 17.6639 7.22954V14.1688C17.6996 14.7281 17.5357 15.282 17.2012 15.7318C16.8416 16.0853 16.3574 16.2835 15.853 16.2835C15.3487 16.2835 14.8645 16.0853 14.5048 15.7318V15.7186Z" fill="white"/>
<path d="M23.9125 15.8474C23.42 15.5711 23.0026 15.1786 22.6965 14.7041C22.6267 15.2112 22.3654 15.6723 21.9662 15.9928C21.6711 16.1825 21.3257 16.2792 20.9749 16.2704C20.7226 16.2866 20.4698 16.2453 20.2357 16.1497C20.0017 16.0541 19.7923 15.9067 19.6234 15.7185C19.2826 15.2554 19.1175 14.6862 19.1575 14.1126V2.82474C19.121 2.26378 19.2862 1.70825 19.6234 1.25845C19.7885 1.07379 19.993 0.928607 20.2218 0.833658C20.4506 0.738709 20.6978 0.696421 20.9452 0.709923C21.1974 0.69183 21.4504 0.731877 21.6847 0.826977C21.919 0.922077 22.1284 1.06969 22.2967 1.25845C22.6339 1.70825 22.7991 2.26378 22.7626 2.82474V6.09941C22.763 6.1923 22.7564 6.28509 22.7428 6.37697C22.7428 6.45959 22.713 6.55872 22.6998 6.67107C23.0509 6.17708 23.5175 5.77643 24.0589 5.50402C24.6002 5.2316 25.2 5.09568 25.8059 5.10808C26.591 5.10666 27.3607 5.32655 28.0265 5.74253C28.7485 6.2038 29.3222 6.8635 29.6787 7.64256C30.1182 8.59665 30.3319 9.63918 30.3032 10.6892C30.3303 11.7347 30.1284 12.7734 29.7117 13.7326C29.38 14.5049 28.8256 15.1607 28.1193 15.6163C27.4129 16.0719 26.5868 16.3065 25.7465 16.2902C25.107 16.3049 24.4748 16.1522 23.9125 15.8474ZM25.6242 13.1411C25.9431 12.8786 26.187 12.5367 26.3313 12.1498C26.5105 11.6888 26.597 11.1969 26.5858 10.7024C26.5986 10.1906 26.5122 9.68119 26.3313 9.20224C26.192 8.81816 25.9469 8.48134 25.6242 8.23074C25.3149 8.00523 24.9395 7.88898 24.5569 7.9003C24.1807 7.89139 23.8123 8.00762 23.5094 8.23074C23.1877 8.48234 22.9428 8.81883 22.8022 9.20224C22.6245 9.68417 22.5404 10.1956 22.5544 10.709C22.5448 11.2034 22.6312 11.6949 22.8088 12.1564C22.9543 12.5427 23.198 12.8844 23.516 13.1477C23.8133 13.3847 24.1833 13.5119 24.5635 13.5079C24.9487 13.5109 25.3232 13.3814 25.6242 13.1411Z" fill="white"/>
<path d="M35.855 15.8472C35.3634 15.571 34.947 15.1784 34.6423 14.7039C34.6253 14.8877 34.5749 15.0669 34.4936 15.2326C34.3906 15.5441 34.1857 15.8118 33.912 15.9926C33.6167 16.182 33.2714 16.2786 32.9207 16.2702C32.6682 16.2879 32.415 16.2473 32.1807 16.1516C31.9464 16.0559 31.7372 15.9077 31.5692 15.7183C31.2284 15.2552 31.0633 14.686 31.1033 14.1124V2.82456C31.0668 2.2636 31.232 1.70806 31.5692 1.25827C31.7343 1.0736 31.9388 0.928424 32.1676 0.833475C32.3964 0.738526 32.6436 0.696238 32.891 0.70974C33.1431 0.692889 33.3957 0.733505 33.6298 0.828525C33.8639 0.923545 34.0734 1.07049 34.2425 1.25827C34.5797 1.70806 34.7449 2.2636 34.7084 2.82456V6.09922C34.7095 6.19227 34.7017 6.28521 34.6853 6.37679C34.6853 6.4594 34.6588 6.55853 34.6456 6.67088C34.9745 6.20284 35.4093 5.81904 35.9145 5.55069C36.4795 5.2466 37.1136 5.09404 37.755 5.1079C38.5401 5.10648 39.3098 5.32637 39.9756 5.74235C40.6967 6.20461 41.2702 6.86403 41.6278 7.64238C42.0673 8.59647 42.281 9.63899 42.2523 10.689C42.2794 11.7345 42.0775 12.7732 41.6609 13.7324C41.3291 14.5047 40.7747 15.1605 40.0684 15.6161C39.362 16.0717 38.5359 16.3063 37.6956 16.29C37.0539 16.3055 36.4194 16.1529 35.855 15.8472ZM37.57 13.1409C37.8879 12.8776 38.1317 12.5359 38.2771 12.1496C38.4547 11.6881 38.5412 11.1966 38.5316 10.7023C38.5426 10.1906 38.4563 9.68148 38.2771 9.20206C38.1366 8.81865 37.8916 8.48216 37.57 8.23056C37.2605 8.0055 36.8852 7.8893 36.5027 7.90012C36.1265 7.89071 35.7579 8.00698 35.4552 8.23056C35.1325 8.48116 34.8873 8.81797 34.748 9.20206C34.5672 9.68101 34.4808 10.1905 34.4936 10.7023C34.4824 11.1967 34.5689 11.6886 34.748 12.1496C34.8924 12.5365 35.1363 12.8785 35.4552 13.1409C35.7525 13.3779 36.1225 13.5051 36.5027 13.5011C36.8892 13.507 37.2661 13.3798 37.57 13.1409Z" fill="white"/>
<path d="M43.4981 3.94493C43.3186 3.78587 43.1748 3.59052 43.0764 3.37178C42.9779 3.15305 42.927 2.91591 42.927 2.67604C42.927 2.43617 42.9779 2.19903 43.0764 1.98029C43.1748 1.76155 43.3186 1.5662 43.4981 1.40715C43.8963 1.06331 44.4098 0.882719 44.9355 0.901571C45.4539 0.878978 45.9605 1.06049 46.3465 1.40715C46.5239 1.56953 46.6637 1.76869 46.7562 1.9907C46.8487 2.21272 46.8915 2.45225 46.8818 2.69256C46.8858 2.93214 46.8376 3.16973 46.7406 3.38884C46.6436 3.60795 46.5001 3.80333 46.3201 3.96145C45.9337 4.30318 45.4312 4.48408 44.9157 4.46702C44.3941 4.47892 43.8874 4.29231 43.4981 3.94493ZM43.551 15.7185C43.2075 15.2727 43.0384 14.7171 43.0752 14.1555V7.21629C43.0379 6.65878 43.2073 6.10708 43.551 5.66652C43.9176 5.32651 44.3992 5.13758 44.8992 5.13758C45.3992 5.13758 45.8808 5.32651 46.2474 5.66652C46.5873 6.11367 46.7529 6.66922 46.7133 7.2295V14.1688C46.7499 14.7287 46.5846 15.2832 46.2474 15.7317C45.8877 16.0853 45.4035 16.2834 44.8992 16.2834C44.3948 16.2834 43.9107 16.0853 43.551 15.7317V15.7185Z" fill="white"/>
</g>
<defs>
<clipPath id="clip0_5794_133970">
<rect width="46.7408" height="15.8919" fill="white" transform="translate(0.259277 0.554077)"/>
</clipPath>
</defs>
</svg>
