<svg width="18" height="18" viewBox="0 0 18 18" fill="none" xmlns="http://www.w3.org/2000/svg">
<g clip-path="url(#clip0_6642_44803)">
<path d="M9 0C4.03364 0 0 4.03364 0 9C0 13.9664 4.03364 18 9 18C13.9664 18 18 13.9745 18 9C18 4.02545 13.9745 0 9 0Z" fill="#F5F378"/>
<path d="M11.3915 5.39941C12.0624 5.39941 12.6024 5.93941 12.6024 6.61032C12.6024 7.28123 12.0624 7.82123 11.3915 7.82123C10.7206 7.82123 10.1806 7.28123 10.1806 6.61032C10.1806 5.93941 10.7206 5.39941 11.3915 5.39941ZM6.78513 5.39941C7.45604 5.39941 7.99604 5.93941 7.99604 6.61032C7.99604 7.28123 7.45604 7.82123 6.78513 7.82123C6.11422 7.82123 5.57422 7.28123 5.57422 6.61032C5.57422 5.93941 6.11422 5.39941 6.78513 5.39941Z" fill="#191F28"/>
<path d="M8.99783 13.4665C6.82147 13.4665 4.99692 12.1901 4.58783 10.4883C4.49783 10.1038 4.86601 9.75195 5.34056 9.75195L12.6715 9.75195C13.146 9.75195 13.5142 10.1038 13.4242 10.4883C13.0069 12.182 11.1906 13.4665 9.0142 13.4665H8.99783Z" fill="#FF5E5E"/>
</g>
<defs>
<clipPath id="clip0_6642_44803">
<rect width="18" height="18" fill="white"/>
</clipPath>
</defs>
</svg>
