<svg width="14" height="12" viewBox="0 0 14 12" fill="none" xmlns="http://www.w3.org/2000/svg">
<path d="M2.33334 12L11.6667 12C12.7733 12 13.6667 11.1067 13.6667 10L13.6667 4.33334C13.6667 3.22667 12.7733 2.33334 11.6667 2.33334H10.56C10.4267 2.33334 10.3 2.25334 10.2533 2.12667L10.1733 1.92667C9.86668 1.16667 9.13334 0.666672 8.31334 0.666672L5.68668 0.666672C4.86668 0.666672 4.13335 1.16667 3.82668 1.92667L3.74668 2.12667C3.69335 2.25334 3.57335 2.33334 3.44001 2.33334L2.33334 2.33334C1.22668 2.33334 0.333344 3.22667 0.333344 4.33334L0.333344 10C0.333344 11.1067 1.22668 12 2.33334 12ZM10.3333 4C10.7 4 11 4.3 11 4.66667C11 5.03334 10.7 5.33334 10.3333 5.33334C9.96668 5.33334 9.66668 5.03334 9.66668 4.66667C9.66668 4.3 9.96668 4 10.3333 4ZM7.00001 4.5C8.47334 4.5 9.66668 5.69334 9.66668 7.16667C9.66668 8.64 8.47334 9.83334 7.00001 9.83334C5.52668 9.83334 4.33334 8.64 4.33334 7.16667C4.33334 5.69334 5.52668 4.5 7.00001 4.5Z" fill="#B2B2B4"/>
<path d="M7.00001 8.83334C7.92048 8.83334 8.66668 8.08715 8.66668 7.16667C8.66668 6.2462 7.92048 5.5 7.00001 5.5C6.07954 5.5 5.33334 6.2462 5.33334 7.16667C5.33334 8.08715 6.07954 8.83334 7.00001 8.83334Z" fill="#B2B2B4"/>
</svg>
